<?xml version="1.0" encoding="UTF-8" standalone="no"?>
<!DOCTYPE svg PUBLIC "-//W3C//DTD SVG 1.1//EN" "http://www.w3.org/Graphics/SVG/1.1/DTD/svg11.dtd">
<svg width="100%" height="100%" viewBox="0 0 16054 2992" version="1.1" xmlns="http://www.w3.org/2000/svg" xmlns:xlink="http://www.w3.org/1999/xlink" xml:space="preserve" xmlns:serif="http://www.serif.com/" style="fill-rule:evenodd;clip-rule:evenodd;stroke-linejoin:round;stroke-miterlimit:2;">
    <g transform="matrix(1,0,0,1,-17759,0)">
        <g id="Artboard1" transform="matrix(1,0,0,1,-0.588173,4231.063509)">
            <rect x="17759.588" y="-4231.064" width="16053.007" height="2991.884" style="fill:none;"/>
            <g transform="matrix(8.333333,0,0,8.333333,22864.459006,-3597.207676)">
                <path d="M0,177.3C-52.029,177.3 -92.446,137.552 -92.446,88.426C-92.446,39.523 -52.029,0 0,0C24.34,0 47.339,9.377 62.971,23.446L37.515,51.805C27.689,41.98 14.291,36.398 0,36.398C-29.699,36.398 -52.475,59.62 -52.475,88.426C-52.475,117.678 -29.699,140.901 0,140.901C20.321,140.901 36.621,127.28 42.204,108.97L1.116,108.97L14.291,77.037L84.407,77.037L84.407,88.203C84.407,138.223 47.339,177.3 0,177.3" style="fill:rgb(217,224,33);fill-rule:nonzero;"/>
            </g>
            <g transform="matrix(8.333333,0,0,8.333333,23664.309006,-2164.371843)">
                <path d="M0,-166.582L239.947,-166.582L239.947,-131.524L39.747,-131.524L39.747,-100.932L234.14,-100.932L234.14,-68.999L39.747,-68.999L39.747,-35.058L241.733,-35.058L241.733,0L0,0L0,-166.582Z" style="fill:rgb(217,224,33);fill-rule:nonzero;"/>
            </g>
            <g transform="matrix(8.333333,0,0,8.333333,20877.858173,-3252.943509)">
                <path d="M0,94.678L50.762,94.678C75.548,94.678 97.209,79.048 97.209,47.115C97.209,15.63 75.548,0.222 50.762,-0.001L0,-0.001L0,94.678ZM-39.747,-35.952L48.529,-35.952C94.529,-35.952 136.956,-11.166 136.956,47.115C136.956,106.066 95.422,130.63 48.975,130.63L-39.747,130.63L-39.747,-35.952Z" style="fill:rgb(217,224,33);fill-rule:nonzero;"/>
            </g>
            <g transform="matrix(8.333333,0,0,8.333333,18432.729006,-2164.368509)">
                <path d="M0,-166.582L238.651,-166.582L238.651,-131.524L39.747,-131.524L39.747,-100.932L232.844,-100.932L232.844,-68.999L39.747,-68.999L39.747,-35.058L240.437,-35.058L240.437,0L0,0L0,-166.582Z" style="fill:rgb(217,224,33);fill-rule:nonzero;"/>
            </g>
            <g transform="matrix(8.333333,0,0,8.333333,26120.811506,-2164.366843)">
                <path d="M0,-166.582L0,-35.952L56.272,-35.952L56.272,0L-39.747,0L-39.747,-166.582L0,-166.582Z" style="fill:rgb(217,224,33);fill-rule:nonzero;"/>
            </g>
            <g transform="matrix(8.333333,0,0,8.333333,27539.079006,-3085.478509)">
                <path d="M0,54.485L-21.884,-6.476L-43.991,54.485L0,54.485ZM11.165,85.747L-55.379,85.747L-64.31,110.534L-105.621,110.534L-41.088,-56.049L-1.787,-56.049L62.747,110.534L20.097,110.534L11.165,85.747Z" style="fill:rgb(217,224,33);fill-rule:nonzero;"/>
            </g>
            <g transform="matrix(8.333333,0,0,8.333333,28454.183173,-2724.483509)">
                <path d="M0,-32.154L0,67.214L-39.747,67.214L-39.747,-99.368L-1.563,-99.368L70.786,0.224L70.786,-99.368L110.533,-99.368L110.533,67.214L72.573,67.214L0,-32.154Z" style="fill:rgb(217,224,33);fill-rule:nonzero;"/>
            </g>
            <g transform="matrix(8.333333,0,0,8.333333,29834.716506,-3252.951843)">
                <path d="M0,94.678L199.031,94.678C223.817,94.678 245.478,79.048 245.478,47.115C245.478,15.63 223.817,0.222 199.031,-0.001L0,-0.001L0,94.678ZM-39.747,-35.952L196.799,-35.952C242.798,-35.952 285.225,-11.166 285.225,47.115C285.225,106.066 243.691,130.63 197.245,130.63L-39.747,130.63L-39.747,-35.952Z" style="fill:rgb(217,224,33);fill-rule:nonzero;"/>
            </g>
            <g transform="matrix(8.333333,0,0,8.333333,32948.744006,-2481.635176)">
                <path d="M0,-90.437C-7.146,-95.574 -16.747,-99.37 -25.456,-99.37C-36.844,-99.37 -42.427,-94.903 -42.427,-88.204C-42.427,-79.942 -34.164,-74.359 -18.98,-60.515C7.816,-36.399 16.524,-22.331 16.524,-4.913C16.524,23.893 -9.378,41.087 -41.98,41.087C-56.941,41.087 -76.145,36.843 -88.873,29.475L-75.028,-1.117C-64.533,4.689 -54.262,8.931 -42.203,8.931C-30.815,8.931 -23.893,2.902 -23.893,-4.244C-23.893,-12.729 -31.932,-20.322 -47.786,-34.613C-74.582,-57.835 -83.961,-68.554 -83.961,-88.204C-83.961,-110.534 -66.096,-131.524 -26.349,-131.524C-13.174,-131.524 2.01,-127.059 14.068,-120.806L0,-90.437Z" style="fill:rgb(217,224,33);fill-rule:nonzero;"/>
            </g>
            <g transform="matrix(8.333333,0,0,8.333333,18213.859437,-4220.499061)">
                <g transform="matrix(50.6599,0,0,50.6599,1571.7539,318.0442)">
                    <path d="M0.059,-0.122C0.059,-0.158 0.068,-0.187 0.087,-0.208C0.106,-0.23 0.135,-0.246 0.174,-0.257C0.213,-0.269 0.261,-0.277 0.319,-0.282C0.378,-0.288 0.446,-0.292 0.524,-0.296L0.525,-0.367C0.525,-0.411 0.509,-0.445 0.476,-0.469C0.443,-0.493 0.394,-0.505 0.329,-0.505C0.309,-0.505 0.287,-0.504 0.264,-0.502C0.241,-0.5 0.216,-0.496 0.191,-0.492C0.166,-0.487 0.139,-0.481 0.112,-0.474L0.105,-0.51C0.143,-0.52 0.181,-0.528 0.219,-0.533C0.258,-0.539 0.294,-0.542 0.329,-0.542C0.378,-0.542 0.42,-0.536 0.457,-0.524C0.493,-0.512 0.521,-0.493 0.541,-0.468C0.561,-0.442 0.57,-0.409 0.57,-0.367L0.567,-0.123C0.567,-0.086 0.572,-0.06 0.584,-0.047C0.595,-0.034 0.611,-0.028 0.63,-0.028C0.636,-0.028 0.641,-0.028 0.647,-0.029C0.653,-0.03 0.658,-0.032 0.664,-0.034L0.672,-0.002C0.663,0.002 0.654,0.005 0.645,0.007C0.636,0.009 0.627,0.01 0.618,0.01C0.589,0.01 0.567,0.001 0.55,-0.016C0.534,-0.034 0.526,-0.063 0.524,-0.105C0.501,-0.086 0.474,-0.068 0.443,-0.051C0.412,-0.033 0.378,-0.019 0.34,-0.007C0.303,0.004 0.262,0.01 0.218,0.01C0.195,0.01 0.173,0.007 0.154,0.002C0.134,-0.003 0.118,-0.011 0.103,-0.022C0.089,-0.032 0.078,-0.046 0.07,-0.063C0.063,-0.079 0.059,-0.099 0.059,-0.122ZM0.105,-0.128C0.105,-0.092 0.116,-0.066 0.139,-0.049C0.162,-0.032 0.192,-0.023 0.229,-0.023C0.262,-0.023 0.295,-0.028 0.329,-0.037C0.363,-0.046 0.397,-0.059 0.43,-0.076C0.463,-0.094 0.494,-0.115 0.522,-0.14L0.524,-0.267C0.46,-0.264 0.402,-0.261 0.35,-0.257C0.299,-0.252 0.254,-0.246 0.218,-0.237C0.181,-0.228 0.153,-0.215 0.134,-0.197C0.114,-0.18 0.105,-0.157 0.105,-0.128Z" style="fill:rgb(217,224,33);fill-rule:nonzero;"/>
                </g>
                <g transform="matrix(50.6599,0,0,50.6599,1606.658571,318.0442)">
                    <path d="M0.141,-0.532L0.141,-0.434C0.173,-0.46 0.202,-0.481 0.23,-0.497C0.258,-0.512 0.286,-0.524 0.313,-0.531C0.34,-0.538 0.368,-0.542 0.395,-0.542C0.417,-0.542 0.439,-0.541 0.459,-0.538C0.48,-0.535 0.497,-0.531 0.511,-0.527L0.503,-0.488C0.487,-0.492 0.468,-0.496 0.449,-0.498C0.429,-0.501 0.411,-0.503 0.393,-0.503C0.355,-0.503 0.315,-0.494 0.273,-0.478C0.232,-0.461 0.189,-0.433 0.144,-0.393L0.144,-0L0.099,-0L0.099,-0.532L0.141,-0.532Z" style="fill:rgb(217,224,33);fill-rule:nonzero;"/>
                </g>
                <g transform="matrix(50.6599,0,0,50.6599,1630.874003,318.0442)">
                    <path d="M0.059,-0.254C0.059,-0.317 0.073,-0.37 0.1,-0.413C0.127,-0.456 0.165,-0.488 0.216,-0.51C0.266,-0.531 0.326,-0.542 0.394,-0.542C0.418,-0.542 0.444,-0.541 0.472,-0.538C0.499,-0.535 0.527,-0.532 0.554,-0.528C0.581,-0.523 0.606,-0.518 0.628,-0.512L0.622,-0.476C0.599,-0.482 0.574,-0.487 0.548,-0.491C0.521,-0.495 0.495,-0.498 0.468,-0.501C0.442,-0.503 0.418,-0.505 0.395,-0.505C0.336,-0.505 0.284,-0.495 0.241,-0.476C0.197,-0.458 0.164,-0.43 0.14,-0.392C0.117,-0.355 0.105,-0.309 0.105,-0.254C0.105,-0.204 0.117,-0.162 0.139,-0.129C0.162,-0.095 0.195,-0.07 0.239,-0.053C0.282,-0.036 0.335,-0.027 0.397,-0.027C0.421,-0.027 0.447,-0.028 0.474,-0.031C0.501,-0.034 0.529,-0.038 0.556,-0.043C0.584,-0.047 0.61,-0.053 0.634,-0.059L0.641,-0.023C0.605,-0.014 0.564,-0.006 0.519,0.001C0.473,0.007 0.43,0.01 0.389,0.01C0.282,0.01 0.2,-0.012 0.144,-0.057C0.087,-0.101 0.059,-0.167 0.059,-0.254Z" style="fill:rgb(217,224,33);fill-rule:nonzero;"/>
                </g>
                <g transform="matrix(50.6599,0,0,50.6599,1665.525375,318.0442)">
                    <path d="M0.099,-0L0.099,-0.74L0.144,-0.74L0.144,-0.458C0.179,-0.474 0.211,-0.489 0.242,-0.501C0.273,-0.514 0.305,-0.524 0.337,-0.531C0.369,-0.538 0.405,-0.542 0.443,-0.542C0.488,-0.542 0.526,-0.535 0.556,-0.521C0.586,-0.507 0.608,-0.486 0.624,-0.459C0.639,-0.432 0.646,-0.399 0.646,-0.361L0.646,-0L0.601,-0L0.601,-0.351C0.601,-0.399 0.587,-0.436 0.56,-0.463C0.532,-0.49 0.489,-0.504 0.43,-0.504C0.394,-0.504 0.361,-0.5 0.33,-0.494C0.3,-0.487 0.27,-0.477 0.24,-0.465C0.211,-0.453 0.179,-0.439 0.144,-0.422L0.144,-0L0.099,-0Z" style="fill:rgb(217,224,33);fill-rule:nonzero;"/>
                </g>
                <g transform="matrix(50.6599,0,0,50.6599,1703.5203,318.0442)">
                    <path d="M0.121,-0.666C0.109,-0.666 0.101,-0.668 0.097,-0.671C0.093,-0.675 0.091,-0.682 0.091,-0.693C0.091,-0.703 0.093,-0.711 0.097,-0.714C0.1,-0.717 0.109,-0.719 0.121,-0.719C0.134,-0.719 0.143,-0.717 0.146,-0.714C0.15,-0.711 0.152,-0.703 0.152,-0.693C0.152,-0.682 0.15,-0.675 0.146,-0.671C0.143,-0.668 0.134,-0.666 0.121,-0.666ZM0.099,-0L0.099,-0.532L0.144,-0.532L0.144,-0L0.099,-0Z" style="fill:rgb(217,224,33);fill-rule:nonzero;"/>
                </g>
                <g transform="matrix(50.6599,0,0,50.6599,1716.083955,318.0442)">
                    <path d="M0.303,-0L0.012,-0.527L0.058,-0.537L0.324,-0.048L0.588,-0.537L0.634,-0.527L0.342,-0L0.303,-0Z" style="fill:rgb(217,224,33);fill-rule:nonzero;"/>
                </g>
                <g transform="matrix(50.6599,0,0,50.6599,1747.898372,318.0442)">
                    <path d="M0.358,0.01C0.314,0.01 0.273,0.005 0.236,-0.006C0.2,-0.016 0.168,-0.032 0.142,-0.054C0.115,-0.075 0.095,-0.102 0.081,-0.135C0.066,-0.167 0.059,-0.206 0.059,-0.25C0.059,-0.303 0.068,-0.348 0.086,-0.385C0.104,-0.422 0.128,-0.452 0.16,-0.475C0.191,-0.498 0.227,-0.515 0.267,-0.526C0.307,-0.537 0.349,-0.542 0.394,-0.542C0.483,-0.542 0.549,-0.524 0.594,-0.489C0.639,-0.453 0.662,-0.398 0.662,-0.321C0.662,-0.318 0.661,-0.314 0.661,-0.31C0.661,-0.305 0.661,-0.301 0.66,-0.296C0.645,-0.296 0.621,-0.294 0.587,-0.292C0.553,-0.29 0.512,-0.288 0.463,-0.285C0.414,-0.283 0.36,-0.281 0.3,-0.279C0.239,-0.277 0.175,-0.276 0.107,-0.276C0.106,-0.271 0.106,-0.266 0.105,-0.261C0.105,-0.257 0.105,-0.251 0.105,-0.246C0.105,-0.196 0.116,-0.154 0.138,-0.122C0.16,-0.089 0.19,-0.065 0.228,-0.049C0.267,-0.034 0.312,-0.026 0.363,-0.026C0.399,-0.026 0.436,-0.028 0.471,-0.032C0.507,-0.036 0.54,-0.04 0.571,-0.046C0.601,-0.051 0.627,-0.056 0.647,-0.061L0.654,-0.026C0.632,-0.021 0.606,-0.015 0.576,-0.01C0.545,-0.004 0.511,0.001 0.474,0.004C0.437,0.008 0.399,0.01 0.358,0.01ZM0.109,-0.309C0.172,-0.309 0.232,-0.31 0.288,-0.311C0.345,-0.313 0.396,-0.315 0.441,-0.317C0.486,-0.319 0.524,-0.321 0.554,-0.322C0.584,-0.324 0.605,-0.325 0.615,-0.326C0.615,-0.367 0.607,-0.401 0.591,-0.428C0.575,-0.455 0.551,-0.475 0.518,-0.488C0.485,-0.501 0.443,-0.508 0.392,-0.508C0.363,-0.508 0.333,-0.505 0.303,-0.498C0.272,-0.492 0.243,-0.481 0.216,-0.466C0.189,-0.451 0.166,-0.431 0.147,-0.405C0.127,-0.38 0.115,-0.348 0.109,-0.309Z" style="fill:rgb(217,224,33);fill-rule:nonzero;"/>
                </g>
                <g transform="matrix(50.6599,0,0,50.6599,1784.069541,318.0442)">
                </g>
            </g>
        </g>
    </g>
</svg>
