<?xml version="1.0" encoding="UTF-8" standalone="no"?>
<svg
   width="100%"
   height="100%"
   viewBox="0 0 16054 2992"
   version="1.1"
   xml:space="preserve"
   style="fill-rule:evenodd;clip-rule:evenodd;stroke-linejoin:round;stroke-miterlimit:2;"
   id="svg19"
   sodipodi:docname="institute Edgelands Title.svg"
   inkscape:version="1.4.2 (f4327f4, 2025-05-13)"
   xmlns:inkscape="http://www.inkscape.org/namespaces/inkscape"
   xmlns:sodipodi="http://sodipodi.sourceforge.net/DTD/sodipodi-0.dtd"
   xmlns="http://www.w3.org/2000/svg"
   xmlns:svg="http://www.w3.org/2000/svg"><defs
   id="defs19" /><sodipodi:namedview
   id="namedview19"
   pagecolor="#ffffff"
   bordercolor="#000000"
   borderopacity="0.25"
   inkscape:showpageshadow="2"
   inkscape:pageopacity="0.0"
   inkscape:pagecheckerboard="0"
   inkscape:deskcolor="#d1d1d1"
   inkscape:zoom="0.12614637"
   inkscape:cx="9829.8508"
   inkscape:cy="1625.0963"
   inkscape:window-width="1536"
   inkscape:window-height="890"
   inkscape:window-x="-6"
   inkscape:window-y="-6"
   inkscape:window-maximized="1"
   inkscape:current-layer="g18" />
    <g
   transform="matrix(1,0,0,1,-17759,0)"
   id="g19">
        <g
   id="Artboard1"
   transform="matrix(1,0,0,1,-0.588173,4231.063509)">
            <rect
   x="17759.588"
   y="-4231.064"
   width="16053.007"
   height="2991.884"
   style="fill:none;"
   id="rect1" />
            <g
   transform="matrix(8.333333,0,0,8.333333,22864.459006,-3597.207676)"
   id="g1">
                <path
   d="M0,177.3C-52.029,177.3 -92.446,137.552 -92.446,88.426C-92.446,39.523 -52.029,0 0,0C24.34,0 47.339,9.377 62.971,23.446L37.515,51.805C27.689,41.98 14.291,36.398 0,36.398C-29.699,36.398 -52.475,59.62 -52.475,88.426C-52.475,117.678 -29.699,140.901 0,140.901C20.321,140.901 36.621,127.28 42.204,108.97L1.116,108.97L14.291,77.037L84.407,77.037L84.407,88.203C84.407,138.223 47.339,177.3 0,177.3"
   style="fill:#37977a;fill-rule:nonzero;fill-opacity:1"
   id="path1" />
            </g>
            <g
   transform="matrix(8.333333,0,0,8.333333,23664.309006,-2164.371843)"
   id="g2">
                <path
   d="M0,-166.582L239.947,-166.582L239.947,-131.524L39.747,-131.524L39.747,-100.932L234.14,-100.932L234.14,-68.999L39.747,-68.999L39.747,-35.058L241.733,-35.058L241.733,0L0,0L0,-166.582Z"
   style="fill:#37977a;fill-rule:nonzero;fill-opacity:1"
   id="path2" />
            </g>
            <g
   transform="matrix(8.333333,0,0,8.333333,20877.858173,-3252.943509)"
   id="g3">
                <path
   d="M0,94.678L50.762,94.678C75.548,94.678 97.209,79.048 97.209,47.115C97.209,15.63 75.548,0.222 50.762,-0.001L0,-0.001L0,94.678ZM-39.747,-35.952L48.529,-35.952C94.529,-35.952 136.956,-11.166 136.956,47.115C136.956,106.066 95.422,130.63 48.975,130.63L-39.747,130.63L-39.747,-35.952Z"
   style="fill:#37977a;fill-rule:nonzero;fill-opacity:1"
   id="path3" />
            </g>
            <g
   transform="matrix(8.333333,0,0,8.333333,18432.729006,-2164.368509)"
   id="g4">
                <path
   d="M0,-166.582L238.651,-166.582L238.651,-131.524L39.747,-131.524L39.747,-100.932L232.844,-100.932L232.844,-68.999L39.747,-68.999L39.747,-35.058L240.437,-35.058L240.437,0L0,0L0,-166.582Z"
   style="fill:#37977a;fill-rule:nonzero;fill-opacity:1"
   id="path4" />
            </g>
            <g
   transform="matrix(8.333333,0,0,8.333333,26120.811506,-2164.366843)"
   id="g5">
                <path
   d="M0,-166.582L0,-35.952L56.272,-35.952L56.272,0L-39.747,0L-39.747,-166.582L0,-166.582Z"
   style="fill:#37977a;fill-rule:nonzero;fill-opacity:1"
   id="path5" />
            </g>
            <g
   transform="matrix(8.333333,0,0,8.333333,27539.079006,-3085.478509)"
   id="g6">
                <path
   d="M0,54.485L-21.884,-6.476L-43.991,54.485L0,54.485ZM11.165,85.747L-55.379,85.747L-64.31,110.534L-105.621,110.534L-41.088,-56.049L-1.787,-56.049L62.747,110.534L20.097,110.534L11.165,85.747Z"
   style="fill:#37977a;fill-rule:nonzero;fill-opacity:1"
   id="path6" />
            </g>
            <g
   transform="matrix(8.333333,0,0,8.333333,28454.183173,-2724.483509)"
   id="g7">
                <path
   d="M0,-32.154L0,67.214L-39.747,67.214L-39.747,-99.368L-1.563,-99.368L70.786,0.224L70.786,-99.368L110.533,-99.368L110.533,67.214L72.573,67.214L0,-32.154Z"
   style="fill:#37977a;fill-rule:nonzero;fill-opacity:1"
   id="path7" />
            </g>
            <g
   transform="matrix(8.333333,0,0,8.333333,29834.716506,-3252.951843)"
   id="g8">
                <path
   d="M0,94.678L199.031,94.678C223.817,94.678 245.478,79.048 245.478,47.115C245.478,15.63 223.817,0.222 199.031,-0.001L0,-0.001L0,94.678ZM-39.747,-35.952L196.799,-35.952C242.798,-35.952 285.225,-11.166 285.225,47.115C285.225,106.066 243.691,130.63 197.245,130.63L-39.747,130.63L-39.747,-35.952Z"
   style="fill:#37977a;fill-rule:nonzero;fill-opacity:1"
   id="path8" />
            </g>
            <g
   transform="matrix(8.333333,0,0,8.333333,32948.744006,-2481.635176)"
   id="g9">
                <path
   d="M0,-90.437C-7.146,-95.574 -16.747,-99.37 -25.456,-99.37C-36.844,-99.37 -42.427,-94.903 -42.427,-88.204C-42.427,-79.942 -34.164,-74.359 -18.98,-60.515C7.816,-36.399 16.524,-22.331 16.524,-4.913C16.524,23.893 -9.378,41.087 -41.98,41.087C-56.941,41.087 -76.145,36.843 -88.873,29.475L-75.028,-1.117C-64.533,4.689 -54.262,8.931 -42.203,8.931C-30.815,8.931 -23.893,2.902 -23.893,-4.244C-23.893,-12.729 -31.932,-20.322 -47.786,-34.613C-74.582,-57.835 -83.961,-68.554 -83.961,-88.204C-83.961,-110.534 -66.096,-131.524 -26.349,-131.524C-13.174,-131.524 2.01,-127.059 14.068,-120.806L0,-90.437Z"
   style="fill:#37977a;fill-rule:nonzero;fill-opacity:1"
   id="path9" />
            </g>
            <g
   transform="matrix(8.333333,0,0,8.333333,18213.859437,-4220.499061)"
   id="g18">
                
                
                
                
                
                
                
                <g
   transform="matrix(50.6599,0,0,50.6599,1784.069541,318.0442)"
   id="g17">
                </g>
            </g>
        </g>
    </g>
</svg>
